<?xml version="1.0" encoding="UTF-8"?><svg id="Capa_1" xmlns="http://www.w3.org/2000/svg" viewBox="0 0 13.38 16.42"><defs><style>.cls-1{fill:#f5f5f7;}</style></defs><path class="cls-1" d="M9.85,0h.12c.09,1.16-.35,2.02-.89,2.65-.53,.62-1.25,1.23-2.42,1.13-.08-1.14,.36-1.94,.9-2.57,.5-.58,1.41-1.1,2.28-1.22Z"/><path class="cls-1" d="M13.38,12.05v.03c-.33,.99-.8,1.84-1.37,2.63-.52,.72-1.16,1.68-2.3,1.68-.99,0-1.64-.63-2.65-.65-1.07-.02-1.66,.53-2.63,.67h-.33c-.72-.1-1.3-.67-1.72-1.18C1.14,13.72,.18,11.77,0,9.27v-.73c.08-1.79,.95-3.24,2.1-3.95,.61-.37,1.45-.69,2.38-.55,.4,.06,.81,.2,1.17,.33,.34,.13,.76,.36,1.17,.35,.27,0,.54-.15,.82-.25,.8-.29,1.59-.62,2.63-.47,1.25,.19,2.14,.74,2.68,1.6-1.06,.67-1.89,1.69-1.75,3.42,.13,1.57,1.04,2.49,2.18,3.03Z"/></svg>